<?xml version="1.0" encoding="iso-8859-1"?>
<!-- Generator: Adobe Illustrator 19.0.0, SVG Export Plug-In . SVG Version: 6.00 Build 0)  -->
<svg version="1.1" id="Layer_1" xmlns="http://www.w3.org/2000/svg" xmlns:xlink="http://www.w3.org/1999/xlink" x="0px" y="0px"
	 viewBox="0 0 512.001 512.001" style="enable-background:new 0 0 512.001 512.001;" xml:space="preserve">
<path style="fill:#C70024;" d="M272.544,397.51c39.266,0.995,79.041,8.61,117.732,23.695l-30.087-68.565
	c46.561-20.167,100.847-22.672,151.812-2.801l-43.72-62.53l39.886-62.554l-77.65-23.569l-11.92-64.37
	c-18.224,46.048-42.872,63.004-83.765,84.242c7.919-62.852,26.162-105.496,73.774-154.611l-92.446,18.989l-66.23-80.061
	L187.49,87.811L93.616,72.259c49.393,47.325,62.757,86.293,73,148.798c-41.647-19.715-60.454-32.778-80.34-78.11l-11.263,72.8
	L0,234.13l40.452,69.075L0.782,359.27c50.208-21.738,104.575-21.238,151.825-2.801l-27.526,69.628
	c37.313-16.166,67.011-27.682,105.429-30.339L272.544,397.51z"/>
<path style="fill:#610012;" d="M391.451,267.453L391.451,267.453c-3.18-8.526-12.758-12.899-21.283-9.719l-102.709,38.313V143.704
	c0-9.099-7.445-16.544-16.544-16.544l0,0c-9.099,0-16.544,7.445-16.544,16.544v151.731l-101.069-37.701
	c-8.525-3.18-18.103,1.193-21.283,9.719l0,0c-3.18,8.525,1.193,18.103,9.719,21.283L234.37,330.75v159.331
	c0,9.099,7.445,16.544,16.544,16.544l0,0c9.099,0,16.544-7.445,16.544-16.544V331.362l114.274-42.626
	C390.258,285.556,394.632,275.978,391.451,267.453z"/>
<g style="opacity:0.26;">
	<path style="fill:#610012;" d="M512,349.838l-43.72-62.53l39.886-62.554l-43.229-13.122l-29.26,45.889l43.72,62.53
		c-50.964-19.871-105.251-17.366-151.812,2.801l30.087,68.565c-38.691-15.085-78.466-22.7-117.732-23.695l-5.086-0.212v92.784
		c0,1.342-0.18,2.642-0.485,3.894v25.893c0,9.099,7.445,16.544,16.544,16.544l0,0c9.099,0,16.544-7.445,16.544-16.544v-92.784
		l5.086,0.212c39.266,0.995,79.041,8.61,117.732,23.695l-30.087-68.565C406.749,332.472,461.036,329.967,512,349.838z"/>
</g>
<g>
</g>
<g>
</g>
<g>
</g>
<g>
</g>
<g>
</g>
<g>
</g>
<g>
</g>
<g>
</g>
<g>
</g>
<g>
</g>
<g>
</g>
<g>
</g>
<g>
</g>
<g>
</g>
<g>
</g>
</svg>
