<?xml version="1.0" encoding="iso-8859-1"?>
<!-- Generator: Adobe Illustrator 19.0.0, SVG Export Plug-In . SVG Version: 6.00 Build 0)  -->
<svg version="1.1" id="Layer_1" xmlns="http://www.w3.org/2000/svg" xmlns:xlink="http://www.w3.org/1999/xlink" x="0px" y="0px"
	 viewBox="0 0 512 512" style="enable-background:new 0 0 512 512;" xml:space="preserve">
<path style="fill:#B27214;" d="M265.632,364.155v130.807c0,5.313-4.312,9.626-9.626,9.626c-5.326,0-9.626-4.312-9.626-9.626V364.155
	c0-5.313,4.299-9.626,9.626-9.626C261.32,354.529,265.632,358.842,265.632,364.155z"/>
<path style="fill:#995C0D;" d="M265.632,364.155v50.054l-9.626-9.626l-9.626,9.626v-50.054c0-5.313,4.299-9.626,9.626-9.626
	C261.32,354.529,265.632,358.842,265.632,364.155z"/>
<path style="fill:#F7B239;" d="M512,364.155l-26.169,26.169c-56.24,56.24-147.415,56.24-203.655,0l-26.169-26.169l-26.182,26.169
	c-56.227,56.24-147.415,56.24-203.655,0L0,364.155l26.169-26.169c16.595-16.595,36.231-28.248,57.1-35.051
	c-26.811-30.995-43.021-71.397-43.021-115.586v-38.952h38.952c26.028,0,50.747,5.634,73.002,15.735
	c4.633-37.784,21.446-74.362,50.452-103.368l53.352-53.352l53.34,53.352c29.006,29.006,45.831,65.583,50.465,103.368
	c22.255-10.101,46.974-15.735,73.002-15.735h38.939v38.952c0,44.189-16.21,84.591-43.008,115.586
	c20.869,6.802,40.505,18.456,57.087,35.051L512,364.155z"/>
<path style="fill:#E09B2D;" d="M256.006,7.412v356.743l-26.182,26.169c-56.227,56.24-147.415,56.24-203.655,0L0,364.155
	l26.169-26.169c16.595-16.595,36.231-28.248,57.1-35.051c-26.811-30.995-43.021-71.397-43.021-115.586v-38.952h38.952
	c26.028,0,50.747,5.634,73.002,15.735c4.633-37.784,21.446-74.362,50.452-103.368L256.006,7.412z"/>
<g>
	<path style="fill:#B27214;" d="M256.003,278.773c-3.544,0-6.417-2.874-6.417-6.417V121.752c0-3.544,2.874-6.417,6.417-6.417
		c3.544,0,6.417,2.874,6.417,6.417v150.604C262.42,275.901,259.546,278.773,256.003,278.773z"/>
	<path style="fill:#B27214;" d="M301.437,292.265c-2.758,0-5.307-1.792-6.142-4.569c-1.022-3.393,0.901-6.973,4.296-7.995
		c32.154-9.678,64.922-29.658,97.396-59.383c2.614-2.394,6.673-2.214,9.066,0.4c2.394,2.614,2.214,6.674-0.4,9.066
		c-33.907,31.037-68.348,51.966-102.363,62.205C302.673,292.176,302.05,292.265,301.437,292.265z"/>
	<path style="fill:#B27214;" d="M419.314,377.494c-33.934,0-82.686-19.343-130.992-52.053c-2.934-1.987-3.703-5.977-1.715-8.912
		c1.988-2.935,5.978-3.703,8.912-1.716c47.097,31.892,93.985,50.533,125.424,49.829c3.537-0.069,6.479,2.731,6.557,6.275
		c0.078,3.544-2.731,6.479-6.275,6.557C420.593,377.487,419.956,377.494,419.314,377.494z"/>
	<path style="fill:#B27214;" d="M210.566,292.265c-0.613,0-1.235-0.089-1.852-0.273c-34.015-10.239-68.456-31.167-102.363-62.205
		c-2.614-2.394-2.794-6.452-0.4-9.066c2.391-2.614,6.452-2.794,9.066-0.4c32.473,29.726,65.242,49.705,97.396,59.383
		c3.395,1.022,5.317,4.601,4.296,7.995C215.873,290.472,213.325,292.265,210.566,292.265z"/>
	<path style="fill:#B27214;" d="M92.69,377.494c-0.643,0-1.276-0.006-1.908-0.021c-3.544-0.078-6.353-3.013-6.275-6.557
		c0.078-3.542,2.978-6.344,6.557-6.275c31.444,0.688,78.324-17.936,125.424-49.829c2.935-1.987,6.925-1.219,8.912,1.716
		c1.987,2.934,1.219,6.924-1.715,8.912C175.38,358.148,126.624,377.494,92.69,377.494z"/>
</g>
<g>
</g>
<g>
</g>
<g>
</g>
<g>
</g>
<g>
</g>
<g>
</g>
<g>
</g>
<g>
</g>
<g>
</g>
<g>
</g>
<g>
</g>
<g>
</g>
<g>
</g>
<g>
</g>
<g>
</g>
</svg>
