<?xml version="1.0" encoding="iso-8859-1"?>
<!-- Generator: Adobe Illustrator 19.0.0, SVG Export Plug-In . SVG Version: 6.00 Build 0)  -->
<svg version="1.1" id="Layer_1" xmlns="http://www.w3.org/2000/svg" xmlns:xlink="http://www.w3.org/1999/xlink" x="0px" y="0px"
	 viewBox="0 0 512 512" style="enable-background:new 0 0 512 512;" xml:space="preserve">
<path style="fill:#CC6D00;" d="M260.037,419.98C507.224,419.98,512,256.383,512,256.383c-41.795-20.301-109.861,0-109.861,0
	c84.784-58.512,74.036-124.243,74.036-124.243c-63.29-21.495-149.754,30.158-149.754,30.158
	C337.656,48.603,256.001,6.703,256.001,6.703s-81.655,41.899-70.422,155.595c0,0-86.464-51.653-149.754-30.158
	c0,0-10.747,65.729,74.036,124.243c0,0-68.066-20.301-109.861,0c0,0,4.776,163.597,251.963,163.597H260.037z"/>
<path style="fill:#FF8800;" d="M439.178,298.488c-3.39-4.42-9.721-5.255-14.141-1.865c-55.499,42.562-131.391,54.131-158.951,57.026
	v-70.698c63.522-20.833,131.434-80.878,134.402-83.52c4.159-3.705,4.529-10.08,0.824-14.239c-3.706-4.16-10.081-4.529-14.239-0.824
	c-0.671,0.597-63.096,55.811-120.989,77.225V102.339c0-5.57-4.515-10.085-10.085-10.085s-10.085,4.515-10.085,10.085v159.253
	c-57.833-21.406-120.318-76.628-120.99-77.225c-4.159-3.702-10.533-3.332-14.237,0.828c-3.702,4.159-3.333,10.533,0.826,14.236
	c2.968,2.642,70.881,62.687,134.402,83.52v70.707c-27.539-2.874-103.344-14.392-158.951-57.036
	c-4.419-3.39-10.749-2.554-14.141,1.865c-3.39,4.42-2.554,10.751,1.866,14.141c61.592,47.233,143.383,58.721,171.224,61.343v121.24
	c0,5.57,4.515,10.085,10.085,10.085c5.57,0,10.085-4.515,10.085-10.085v-121.24c27.842-2.621,109.634-14.108,171.226-61.343
	C441.731,309.239,442.566,302.908,439.178,298.488z"/>
<path style="opacity:0.3;fill:#20272E;enable-background:new    ;" d="M402.14,256.383c84.784-58.514,74.036-124.243,74.036-124.243
	c-63.29-21.495-149.754,30.158-149.754,30.158C337.656,48.603,256.001,6.705,256.001,6.705v498.592
	c5.57,0,10.085-4.515,10.085-10.085v-75.266C507.3,417.299,512,256.384,512,256.384C470.206,236.083,402.14,256.383,402.14,256.383z
	"/>
<g>
</g>
<g>
</g>
<g>
</g>
<g>
</g>
<g>
</g>
<g>
</g>
<g>
</g>
<g>
</g>
<g>
</g>
<g>
</g>
<g>
</g>
<g>
</g>
<g>
</g>
<g>
</g>
<g>
</g>
</svg>
